# xmcd CD database file
#
# Track frame offsets:
#	150
#	10058
#	21992
#	27290
#	41550
#	51074
#	62781
#	76758
#	88034
#	103573
#	115838
#	128187
#	139719
#	149335
#	161300
#	173963
#	186146
#
# Disc length: 2642 seconds
#
# Revision: 0
# Processed by: cddbd v1.5.2PL0 Copyright (c) Steve Scherf et al.
# Submitted via: CDex 1.70beta2
#
DISCID=da0a5011
DTITLE=Various Artist - Country Roots - CD 3
DYEAR=2007
DGENRE=Country Classics
TTITLE0=Red Foley - When God Dips His Love In My Heart
TTITLE1=Merle Travis - Nine Pound Hammer
TTITLE2=Gene Autry - Down Mexico Way
TTITLE3=The Carter Family - My Clinch Mountain Home
TTITLE4=Bill Haley And His Comets - Razzle Dazzle
TTITLE5=Gene Autry - Back In The Saddle Again
TTITLE6=The Carter Family - Dying Solider
TTITLE7=Bob Willis - Right Or Wrong
TTITLE8=Bill Haley - My Mom Heard Me Crying
TTITLE9=Hank Williams - Honky Tonkin'
TTITLE10=Floyd Tillman - Slippin' Around
TTITLE11=The Carter Family - Jimmy Brown The Newsboy
TTITLE12=Tex Williams - Drop Dead
TTITLE13=Roy Acuff - I'll Forgive You But I Can't Forget You
TTITLE14=Red Foley And Ernest Tubb - No Help Wanted No.2
TTITLE15=Hank Williams - My Sweet Love Ain't Around
TTITLE16=Gene Autry - Peter Cottontail
EXTD=YEAR: 2007
EXTT0=
EXTT1=
EXTT2=
EXTT3=
EXTT4=
EXTT5=
EXTT6=
EXTT7=
EXTT8=
EXTT9=
EXTT10=
EXTT11=
EXTT12=
EXTT13=
EXTT14=
EXTT15=
EXTT16=
PLAYORDER=
